# xmcd
# Track frame offsets:
# 150
# 15432
# 37409
# 59302
# 71598
# 87571
# 107078
# 122606
# 138382
# 156449
# 170450
# 186315
# 204039
# 228184
# 243441
# 256975
#
# Disc length: 3591 seconds
# Revision: 0
# Processed by: cddbd v1.5.1PL0 Copyright (c) Steve Scherf et al.
# Submitted via: VisiTrax 2.9.10.228 - For more info visit www.synapsa.com
#
DISCID=dc0e0510
DTITLE=Various Artist - Coiuntry Fever Vol 8
DYEAR=2001
DGENRE=Country
TTITLE0=Denna Carter - We Danced Anyway
TTITLE1=Steve Warner and Anita Cochran - What If I Said
TTITLE2=Travis Tritt - Tell Me I Was Dreaming
TTITLE3=Lee Roy Parnell - A Little Bit Of You
TTITLE4=Wynonna - Only Love
TTITLE5=Trish Yearwood - Walkaway Joe
TTITLE6=Mindy McCready - Ten Thousand Angles
TTITLE7=Reba McEntire - I'd Reather Ride Around With You
TTITLE8=Lone Star - Amazed
TTITLE9=Tracy Lawrence - If the World Had  Front Porch
TTITLE10=Rick Trevino - Learning As You Go
TTITLE11=Garth Brooks - To Make You Feel My Love
TTITLE12=The Judds - Love Can Build A Bridge
TTITLE13=Sammy Kershaw - Third Rate Romance
TTITLE14=Trace Adkins - Every Light In The House Is On
TTITLE15=Wade Hayes - Don't Stop
EXTD=
EXTT0=
EXTT1=
EXTT2=
EXTT3=
EXTT4=
EXTT5=
EXTT6=
EXTT7=
EXTT8=
EXTT9=
EXTT10=
EXTT11=
EXTT12=
EXTT13=
EXTT14=
EXTT15=1
PLAYORDER=
